<svg width="132" height="24" viewBox="0 0 132 24" fill="none" xmlns="http://www.w3.org/2000/svg">
<path d="M13.1362 18.3091C13.451 18.9168 13.451 19.642 13.1362 20.2498L11.98 22.4944L0.5 0H2.48404C3.29817 0 4.0439 0.455827 4.41334 1.16719L13.1362 18.3091ZM28.1397 0L16.0302 24H12.6163L24.1032 1.22935C24.4863 0.476547 25.2525 0 26.0941 0H28.1397Z" fill="url(#paint0_linear_277_2529)" style=""/>
<path fill-rule="evenodd" clip-rule="evenodd" d="M114.148 6.48761V17.504H112.468L105.664 8.31517V11.9703C105.664 12.3698 105.342 12.6843 104.951 12.6843H104.239V6.48761H105.91L112.723 15.6849V7.20163C112.723 6.80212 113.045 6.48761 113.436 6.48761H114.148ZM55.9985 17.504C59.0359 17.504 61.4962 15.0389 61.4962 11.9958C61.4962 8.95269 59.0359 6.48761 55.9985 6.48761C52.9612 6.48761 50.5008 8.95269 50.5008 11.9958C50.5008 15.0389 52.9612 17.504 55.9985 17.504ZM55.9985 7.86465C58.2723 7.86465 60.1218 9.71772 60.1218 11.9958C60.1218 14.2739 58.2723 16.1269 55.9985 16.1269C53.7248 16.1269 51.8753 14.2739 51.8753 11.9958C51.8753 9.71772 53.7248 7.86465 55.9985 7.86465ZM34.084 6.48765H34.101H35.4669H41.6179H41.7197C43.425 6.48765 44.8164 7.8732 44.8164 9.59025C44.8164 10.4318 44.477 11.1968 43.934 11.7578C44.8334 12.3018 45.4442 13.2879 45.4442 14.4184L45.4188 14.4099C45.4188 16.1185 44.0359 17.5125 42.3221 17.5125C42.3221 17.5125 42.6105 17.504 34.084 17.504V16.841C34.084 16.4415 34.4064 16.127 34.7967 16.127H42.3221C43.2723 16.127 44.0359 15.3619 44.0359 14.4184C44.0359 13.4749 43.2723 12.7014 42.3221 12.7014C42.3221 12.7014 39.7514 12.6929 39.7599 12.6844H35.4669V14.2399C35.4669 14.8434 34.9833 15.3279 34.3809 15.3279H34.084V6.48765ZM35.4669 11.3073V7.8647H41.7112C42.6614 7.8647 43.425 8.62972 43.425 9.58175C43.425 10.5338 42.6614 11.3073 41.7112 11.3073H35.4669ZM76.9288 11.9958C76.9288 15.0389 74.4684 17.504 71.4311 17.504C68.3938 17.504 65.9334 15.0389 65.9334 11.9958C65.9334 8.95269 68.3938 6.48761 71.4311 6.48761C74.4684 6.48761 76.9288 8.95269 76.9288 11.9958ZM75.5459 11.9958C75.5459 9.71772 73.6964 7.86465 71.4226 7.86465C69.1489 7.86465 67.2993 9.71772 67.2993 11.9958C67.2993 14.2739 69.1489 16.1269 71.4226 16.1269C73.6964 16.1269 75.5459 14.2739 75.5459 11.9958ZM91.3918 17.504H91.4113L91.4028 17.5125L91.3918 17.504ZM84.2846 12.0043L91.3918 17.504H89.7484C89.3242 17.504 88.9084 17.3595 88.5691 17.1045L82.732 12.5993C82.3417 12.2933 82.3417 11.7068 82.732 11.4008L88.5606 6.89563C88.9 6.63212 89.3072 6.49612 89.7314 6.49612H91.4028L84.2761 12.0043H84.2846ZM98.2494 10.5083V17.504H97.6809C97.367 17.504 97.1125 17.283 97.1125 17.0195V10.0238H97.6809C97.9949 10.0238 98.2494 10.2448 98.2494 10.5083ZM98.2494 9.22472V6.68313C98.2494 6.58113 97.9949 6.50463 97.6809 6.50463H97.1125V9.04621C97.1125 9.14821 97.367 9.22472 97.6809 9.22472H98.2494ZM131.405 17.504V12.6843H130.692C130.302 12.6843 129.979 12.9988 129.979 13.3983V16.1269H125.339C123.065 16.1269 121.215 14.2739 121.215 11.9958C121.215 9.71772 123.065 7.86465 125.339 7.86465H130.022C130.412 7.86465 130.735 7.55014 130.735 7.15063V6.48761H125.33C122.293 6.48761 119.832 8.95269 119.832 11.9958C119.832 15.0389 122.293 17.504 125.33 17.504H129.971H131.405ZM81.7987 6.48761H82.0702V11.0863C82.0702 11.6303 81.629 12.0723 81.086 12.0723H80.8146V7.47364C80.8146 6.92962 81.2557 6.48761 81.7987 6.48761ZM80.8143 17.3254H81.0858C81.6288 17.3254 82.0699 16.8834 82.0699 16.3394V12.7353H81.7984C81.2555 12.7353 80.8143 13.1773 80.8143 13.7213V17.3254Z" fill="#0A2626" style="fill:#0A2626;fill:color(display-p3 0.0392 0.1490 0.1490);fill-opacity:1;"/>
<defs>
<linearGradient id="paint0_linear_277_2529" x1="14.3198" y1="24" x2="14.3198" y2="0" gradientUnits="userSpaceOnUse">
<stop offset="0.14" stop-color="#6154A4" style="stop-color:#6154A4;stop-color:color(display-p3 0.3804 0.3294 0.6431);stop-opacity:1;"/>
<stop offset="0.99" stop-color="#00B3BE" style="stop-color:#00B3BE;stop-color:color(display-p3 0.0000 0.7020 0.7451);stop-opacity:1;"/>
</linearGradient>
</defs>
</svg>
